{"title":"Pan's Labyrinth 2006 1080p BluRay DTS x264 - alrmothe","uid":8363307,"size":16448940676,"categoryP":"video","categoryS":"hd___movies","magnet":"?xt=urn:btih:cb49e03485375b505a66aec3ed9d1453391da15d&amp;dn=Pan%27s+Labyrinth+2006+1080p+BluRay+DTS+x264+-+alrmothe&amp;tr=udp%3A%2F%2Ftracker.openbittorrent.com%3A80&amp;tr=udp%3A%2F%2Fopen.demonii.com%3A1337&amp;tr=udp%3A%2F%2Ftracker.coppersurfer.tk%3A6969&amp;tr=udp%3A%2F%2Fexodus.desync.com%3A6969","seeders":5,"leechers":4,"uploader":".alrmothe","files":28,"time":1365697311,"description":"***************************************************************\n\nPan's Labyrinth 2006 1080p BluRay DTS x264 - alrmothe\n\n***************************************************************\n\nTitle : El laberinto del fauno\nYEAR: 2006\nGENRE : Drama | Fantasy | War    \nimdb URL :http://www.imdb.com/title/tt0457430/\nFormat: Matroska\nOverall bit rate: 18.4 Mbps\nFormat version: Version 4 / Version 2\nFile size:  15.3 GiB\nDuration:  1h 58mn\nSub:Arabic,English\n***************************************************************\n\nVideo\nFormat : AVC \nFormat/Info : Advanced Video Codec \nFormat profile : &lt;a class=&quot;__cf_email__&quot; href=&quot;/cdn-cgi/l/email-protection&quot; data-cfemail=&quot;7c34151b143c3048524d&quot;&gt;[email&amp;#160;protected]&lt;/a&gt;&lt;script cf-hash='f9e31' type=&quot;text/javascript&quot;&gt;\n/* &lt;![CDATA[ */!function(){try{var t=&quot;currentScript&quot;in document?document.currentScript:function(){for(var t=document.getElementsByTagName(&quot;script&quot;),e=t.length;e--;)if(t[e].getAttribute(&quot;cf-hash&quot;))return t[e]}();if(t&amp;&amp;t.previousSibling){var e,r,n,i,c=t.previousSibling,a=c.getAttribute(&quot;data-cfemail&quot;);if(a){for(e=&quot;&quot;,r=parseInt(a.substr(0,2),16),n=2;a.length-n;n+=2)i=parseInt(a.substr(n,2),16)^r,e+=String.fromCharCode(i);e=document.createTextNode(e),c.parentNode.replaceChild(e,c)}}}catch(u){}}();/* ]]&gt; */&lt;/script&gt; \nFormat settings, CABAC : Yes \nFormat settings, ReFrames : 4 frames  \nCodec ID : V_MPEG4/ISO/AVC  \nBit rate : 16.9 Mbps \nWidth : 1920 pixels \nHeight : 1038 pixels \nDisplay aspect ratio : 16:9 \nFrame rate : 23.976 fps \nColor space : YUV \nChroma subsampling : 4:2:0 \nBit depth : 8 bits \nScan type : Progressive \nBits/(Pixel*Frame) : 0.353 \nStream size: 13.7 GiB \nTitle: Pan's Labyrinth 2006 1080p BluRay DTS x264 - alrmothe\n\n\nAudio#1 \nFormat: DTS\nFormat/Info: Digital Theater Systems\nMode: 16\nFormat settings, Endianness: Big\nCodec ID: A_DTS\nBit rate mode: Constant\nBit rate : 1509 Kbps\nChannel(s) : 6 channels\nChannel positions:Front: L C R, Side: L R, LFE\nSampling rate: 48.0 KHz\nBit depth: 24 bits\nCompression mode: Lossy\nStream size: 1.25 GiB\nLanguage : Spanish\n\n*************************************************************** &lt;a href=&quot;\nhttp://img201.imageshack.us/img201/6213/vlcsnap2013041115h45m06.png&quot; rel=&quot;nofollow&quot; target=&quot;_NEW&quot;&gt;\nhttp://img201.imageshack.us/img201/6213/vlcsnap2013041115h45m06.png&lt;/a&gt; &lt;a href=&quot;\nhttp://img20.imageshack.us/img20/6430/vlcsnap2013041115h45m57.png&quot; rel=&quot;nofollow&quot; target=&quot;_NEW&quot;&gt;\nhttp://img20.imageshack.us/img20/6430/vlcsnap2013041115h45m57.png&lt;/a&gt; &lt;a href=&quot;\nhttp://img255.imageshack.us/img255/1089/vlcsnap2013041115h46m29.png&quot; rel=&quot;nofollow&quot; target=&quot;_NEW&quot;&gt;\nhttp://img255.imageshack.us/img255/1089/vlcsnap2013041115h46m29.png&lt;/a&gt; &lt;a href=&quot;\nhttp://img22.imageshack.us/img22/5553/vlcsnap2013041115h48m10.png[&quot; rel=&quot;nofollow&quot; target=&quot;_NEW&quot;&gt;\nhttp://img22.imageshack.us/img22/5553/vlcsnap2013041115h48m10.png[&lt;/a&gt; &lt;a href=&quot;\nhttp://img593.imageshack.us/img593/5890/vlcsnap2013041115h49m59.png&quot; rel=&quot;nofollow&quot; target=&quot;_NEW&quot;&gt;\nhttp://img593.imageshack.us/img593/5890/vlcsnap2013041115h49m59.png&lt;/a&gt; &lt;a href=&quot;\nhttp://img213.imageshack.us/img213/4091/vlcsnap2013041115h52m01.png&quot; rel=&quot;nofollow&quot; target=&quot;_NEW&quot;&gt;\nhttp://img213.imageshack.us/img213/4091/vlcsnap2013041115h52m01.png&lt;/a&gt; &lt;a href=&quot;\nhttp://img571.imageshack.us/img571/5223/vlcsnap2013041115h52m45.png&quot; rel=&quot;nofollow&quot; target=&quot;_NEW&quot;&gt;\nhttp://img571.imageshack.us/img571/5223/vlcsnap2013041115h52m45.png&lt;/a&gt; &lt;a href=&quot;\nhttp://img145.imageshack.us/img145/1161/vlcsnap2013041115h53m22.png&quot; rel=&quot;nofollow&quot; target=&quot;_NEW&quot;&gt;\nhttp://img145.imageshack.us/img145/1161/vlcsnap2013041115h53m22.png&lt;/a&gt; &lt;a href=&quot;\nhttp://img543.imageshack.us/img543/8955/vlcsnap2013041115h56m02.png&quot; rel=&quot;nofollow&quot; target=&quot;_NEW&quot;&gt;\nhttp://img543.imageshack.us/img543/8955/vlcsnap2013041115h56m02.png&lt;/a&gt; &lt;a href=&quot;\nhttp://img443.imageshack.us/img443/1158/vlcsnap2013041115h59m36.png&quot; rel=&quot;nofollow&quot; target=&quot;_NEW&quot;&gt;\nhttp://img443.imageshack.us/img443/1158/vlcsnap2013041115h59m36.png&lt;/a&gt; &lt;a href=&quot;\nhttp://img856.imageshack.us/img856/1356/vlcsnap2013041116h00m45.png&quot; rel=&quot;nofollow&quot; target=&quot;_NEW&quot;&gt;\nhttp://img856.imageshack.us/img856/1356/vlcsnap2013041116h00m45.png&lt;/a&gt;","torrent":{"xt":"urn:btih:cb49e03485375b505a66aec3ed9d1453391da15d","amp;dn":"Pan%27s+Labyrinth+2006+1080p+BluRay+DTS+x264+-+alrmothe","amp;tr":["udp%3A%2F%2Ftracker.openbittorrent.com%3A80","udp%3A%2F%2Fopen.demonii.com%3A1337","udp%3A%2F%2Ftracker.coppersurfer.tk%3A6969","udp%3A%2F%2Fexodus.desync.com%3A6969"],"infoHash":"cb49e03485375b505a66aec3ed9d1453391da15d","infoHashBuffer":{"type":"Buffer","data":[203,73,224,52,133,55,91,80,90,102,174,195,237,157,20,83,57,29,161,93]},"announce":[],"urlList":[]}}